<svg width="16" height="16" viewBox="0 0 16 16" fill="none" xmlns="http://www.w3.org/2000/svg">
<rect width="16" height="16" fill="white"/>
<path d="M9.28517 1.14307V2.85735H10.1423V2.00021H11.0023V2.85735H10.1423V5.42878H10.9995V3.7145H12.7149V2.85735H11.8549V1.14307H9.28517ZM12.7149 3.71335V4.5705H13.572V3.71507L12.7149 3.71335ZM13.572 4.5705V10.5722H14.4292V4.5705H13.572ZM13.572 10.5722H12.7149V12.2859H13.572V10.5722ZM12.7149 12.2859L11.8549 12.2854V13.1425H12.712L12.7149 12.2859ZM11.8577 13.1425H10.1423V13.9996H11.8572L11.8577 13.1425ZM10.1423 13.9996H5.00003V14.8574H10.1429L10.1423 13.9996ZM5.00003 13.9996V13.1431H3.28574V14.0002L5.00003 13.9996ZM3.28574 13.1431V12.2871H2.42746V13.1442L3.28574 13.1431ZM2.42803 12.2871V10.5745H6.71431V9.71735H1.57031V12.2871H2.42803ZM6.71488 9.71735H8.42745V8.86021H6.71488V9.71735ZM8.42745 8.86021H9.2846V8.0025H8.42745V8.86021ZM9.2846 8.0025H10.1423V5.43221H9.28517L9.2846 8.0025Z" fill="#5BC39B"/>
</svg>
