<svg width="16" height="16" viewBox="0 0 16 16" fill="none" xmlns="http://www.w3.org/2000/svg">
<rect width="16" height="16" fill="#0F0F0F"/>
<path fill-rule="evenodd" clip-rule="evenodd" d="M2.28564 8.94167C2.28564 8.94167 2.34925 7.80895 2.72502 7.22813C3.01435 6.78091 3.38833 6.61635 3.79379 6.43793C4.05988 6.32085 4.33952 6.19779 4.6177 5.98497C5.22566 5.51985 5.41995 4.88999 5.60764 4.28153C5.90658 3.31243 6.18877 2.39761 8.09889 2.2891C10.4647 2.15471 11.4111 5.98497 11.4111 5.98497C11.4111 5.98497 12.9439 6.4317 13.3714 7.22813C13.7814 7.99219 13.7093 9.24061 13.7093 9.24061C13.7093 9.24061 12.3219 9.45997 11.8843 9.98324C11.6818 10.2253 11.6702 10.5137 11.6586 10.8001C11.6467 11.0967 11.6348 11.3912 11.4111 11.6296C11.1881 11.8672 10.9349 11.9028 10.6631 11.9409C10.4698 11.9681 10.2671 11.9966 10.0592 12.1C9.6728 12.2921 9.43948 12.6134 9.21759 12.919C8.92912 13.3162 8.65995 13.6869 8.09889 13.7127C7.48538 13.741 7.16289 13.3673 6.80927 12.9575C6.57452 12.6855 6.32605 12.3975 5.96962 12.2008C5.72628 12.0664 5.49275 12.0038 5.27037 11.9441C4.93595 11.8544 4.62674 11.7714 4.34732 11.4616C4.0804 11.1656 4.09623 10.8091 4.11186 10.4571C4.12814 10.0905 4.1442 9.72878 3.84035 9.44565C3.37441 9.0115 2.28564 8.94167 2.28564 8.94167ZM7.08495 5.4138C7.08495 5.80347 6.84284 6.11937 6.54418 6.11937C6.24552 6.11937 6.00342 5.80347 6.00342 5.4138C6.00342 5.02412 6.24552 4.70822 6.54418 4.70822C6.84284 4.70822 7.08495 5.02412 7.08495 5.4138ZM9.04523 5.4138C9.04523 5.80347 8.80312 6.11937 8.50446 6.11937C8.2058 6.11937 7.96369 5.80347 7.96369 5.4138C7.96369 5.02412 8.2058 4.70822 8.50446 4.70822C8.80312 4.70822 9.04523 5.02412 9.04523 5.4138ZM7.52432 8.2025C7.95364 8.2025 8.30167 7.8866 8.30167 7.49692C8.30167 7.10724 7.95364 6.79135 7.52432 6.79135C7.095 6.79135 6.74697 7.10724 6.74697 7.49692C6.74697 7.8866 7.095 8.2025 7.52432 8.2025Z" fill="#ED89A4"/>
</svg>
