<svg width="1000" height="2" viewBox="0 0 1000 2" fill="none" xmlns="http://www.w3.org/2000/svg">
<path d="M-0.000366211 1C-0.000366211 0.447715 0.447349 0 0.999634 0H6.95201C7.5043 0 7.95201 0.447715 7.95201 1C7.95201 1.55228 7.5043 2 6.95201 2H0.999634C0.44735 2 -0.000366211 1.55228 -0.000366211 1Z" fill="#252728"/>
<path d="M11.952 1C11.952 0.447715 12.3997 0 12.952 0H18.9044C19.4567 0 19.9044 0.447715 19.9044 1C19.9044 1.55228 19.4567 2 18.9044 2H12.952C12.3997 2 11.952 1.55228 11.952 1Z" fill="#252728"/>
<path d="M23.9044 1C23.9044 0.447715 24.3521 0 24.9044 0H30.8568C31.4091 0 31.8568 0.447715 31.8568 1C31.8568 1.55228 31.4091 2 30.8568 2H24.9044C24.3521 2 23.9044 1.55228 23.9044 1Z" fill="#252728"/>
<path d="M35.8568 1C35.8568 0.447715 36.3045 0 36.8568 0H42.8092C43.3614 0 43.8092 0.447715 43.8092 1C43.8092 1.55228 43.3614 2 42.8092 2H36.8568C36.3045 2 35.8568 1.55228 35.8568 1Z" fill="#252728"/>
<path d="M47.8092 1C47.8092 0.447715 48.2569 0 48.8092 0H54.7615C55.3138 0 55.7615 0.447715 55.7615 1C55.7615 1.55228 55.3138 2 54.7615 2H48.8092C48.2569 2 47.8092 1.55228 47.8092 1Z" fill="#252728"/>
<path d="M59.7615 1C59.7615 0.447715 60.2093 0 60.7615 0H66.7139C67.2662 0 67.7139 0.447715 67.7139 1C67.7139 1.55228 67.2662 2 66.7139 2H60.7615C60.2093 2 59.7615 1.55228 59.7615 1Z" fill="#252728"/>
<path d="M71.7139 1C71.7139 0.447715 72.1616 0 72.7139 0H78.6663C79.2186 0 79.6663 0.447715 79.6663 1C79.6663 1.55228 79.2186 2 78.6663 2H72.7139C72.1616 2 71.7139 1.55228 71.7139 1Z" fill="#252728"/>
<path d="M83.6663 1C83.6663 0.447715 84.114 0 84.6663 0H90.6187C91.171 0 91.6187 0.447715 91.6187 1C91.6187 1.55228 91.171 2 90.6187 2H84.6663C84.114 2 83.6663 1.55228 83.6663 1Z" fill="#252728"/>
<path d="M95.6187 1C95.6187 0.447715 96.0664 0 96.6187 0H102.571C103.123 0 103.571 0.447715 103.571 1C103.571 1.55228 103.123 2 102.571 2H96.6187C96.0664 2 95.6187 1.55228 95.6187 1Z" fill="#252728"/>
<path d="M107.571 1C107.571 0.447715 108.019 0 108.571 0H114.523C115.076 0 115.523 0.447715 115.523 1C115.523 1.55228 115.076 2 114.523 2H108.571C108.019 2 107.571 1.55228 107.571 1Z" fill="#252728"/>
<path d="M119.523 1C119.523 0.447715 119.971 0 120.523 0H126.476C127.028 0 127.476 0.447715 127.476 1C127.476 1.55228 127.028 2 126.476 2H120.523C119.971 2 119.523 1.55228 119.523 1Z" fill="#252728"/>
<path d="M131.476 1C131.476 0.447715 131.924 0 132.476 0H138.428C138.98 0 139.428 0.447715 139.428 1C139.428 1.55228 138.98 2 138.428 2H132.476C131.924 2 131.476 1.55228 131.476 1Z" fill="#252728"/>
<path d="M143.428 1C143.428 0.447715 143.876 0 144.428 0H150.381C150.933 0 151.381 0.447715 151.381 1C151.381 1.55228 150.933 2 150.381 2H144.428C143.876 2 143.428 1.55228 143.428 1Z" fill="#252728"/>
<path d="M155.381 1C155.381 0.447715 155.828 0 156.381 0H162.333C162.885 0 163.333 0.447715 163.333 1C163.333 1.55228 162.885 2 162.333 2H156.381C155.828 2 155.381 1.55228 155.381 1Z" fill="#252728"/>
<path d="M167.333 1C167.333 0.447715 167.781 0 168.333 0H174.285C174.838 0 175.285 0.447715 175.285 1C175.285 1.55228 174.838 2 174.285 2H168.333C167.781 2 167.333 1.55228 167.333 1Z" fill="#252728"/>
<path d="M179.285 1C179.285 0.447715 179.733 0 180.285 0H186.238C186.79 0 187.238 0.447715 187.238 1C187.238 1.55228 186.79 2 186.238 2H180.285C179.733 2 179.285 1.55228 179.285 1Z" fill="#252728"/>
<path d="M191.238 1C191.238 0.447715 191.685 0 192.238 0H198.19C198.742 0 199.19 0.447715 199.19 1C199.19 1.55228 198.742 2 198.19 2H192.238C191.685 2 191.238 1.55228 191.238 1Z" fill="#252728"/>
<path d="M203.19 1C203.19 0.447715 203.638 0 204.19 0H210.142C210.695 0 211.142 0.447715 211.142 1C211.142 1.55228 210.695 2 210.142 2H204.19C203.638 2 203.19 1.55228 203.19 1Z" fill="#252728"/>
<path d="M215.142 1C215.142 0.447715 215.59 0 216.142 0H222.095C222.647 0 223.095 0.447715 223.095 1C223.095 1.55228 222.647 2 222.095 2H216.142C215.59 2 215.142 1.55228 215.142 1Z" fill="#252728"/>
<path d="M227.095 1C227.095 0.447715 227.543 0 228.095 0H234.047C234.6 0 235.047 0.447715 235.047 1C235.047 1.55228 234.6 2 234.047 2H228.095C227.543 2 227.095 1.55228 227.095 1Z" fill="#252728"/>
<path d="M239.047 1C239.047 0.447715 239.495 0 240.047 0H246C246.552 0 247 0.447715 247 1C247 1.55228 246.552 2 246 2H240.047C239.495 2 239.047 1.55228 239.047 1Z" fill="#252728"/>
<path d="M251 1C251 0.447715 251.447 0 252 0H257.952C258.504 0 258.952 0.447715 258.952 1C258.952 1.55228 258.504 2 257.952 2H252C251.447 2 251 1.55228 251 1Z" fill="#252728"/>
<path d="M262.952 1C262.952 0.447715 263.4 0 263.952 0H269.904C270.457 0 270.904 0.447715 270.904 1C270.904 1.55228 270.457 2 269.904 2H263.952C263.4 2 262.952 1.55228 262.952 1Z" fill="#252728"/>
<path d="M274.904 1C274.904 0.447715 275.352 0 275.904 0H281.857C282.409 0 282.857 0.447715 282.857 1C282.857 1.55228 282.409 2 281.857 2H275.904C275.352 2 274.904 1.55228 274.904 1Z" fill="#252728"/>
<path d="M286.857 1C286.857 0.447715 287.304 0 287.857 0H293.809C294.361 0 294.809 0.447715 294.809 1C294.809 1.55228 294.361 2 293.809 2H287.857C287.304 2 286.857 1.55228 286.857 1Z" fill="#252728"/>
<path d="M298.809 1C298.809 0.447715 299.257 0 299.809 0H305.762C306.314 0 306.762 0.447715 306.762 1C306.762 1.55228 306.314 2 305.762 2H299.809C299.257 2 298.809 1.55228 298.809 1Z" fill="#252728"/>
<path d="M310.762 1C310.762 0.447715 311.209 0 311.762 0H317.714C318.266 0 318.714 0.447715 318.714 1C318.714 1.55228 318.266 2 317.714 2H311.762C311.209 2 310.762 1.55228 310.762 1Z" fill="#252728"/>
<path d="M322.714 1C322.714 0.447715 323.162 0 323.714 0H329.666C330.219 0 330.666 0.447715 330.666 1C330.666 1.55228 330.219 2 329.666 2H323.714C323.162 2 322.714 1.55228 322.714 1Z" fill="#252728"/>
<path d="M334.666 1C334.666 0.447715 335.114 0 335.666 0H341.619C342.171 0 342.619 0.447715 342.619 1C342.619 1.55228 342.171 2 341.619 2H335.666C335.114 2 334.666 1.55228 334.666 1Z" fill="#252728"/>
<path d="M346.619 1C346.619 0.447715 347.066 0 347.619 0H353.571C354.123 0 354.571 0.447715 354.571 1C354.571 1.55228 354.123 2 353.571 2H347.619C347.066 2 346.619 1.55228 346.619 1Z" fill="#252728"/>
<path d="M358.571 1C358.571 0.447715 359.019 0 359.571 0H365.523C366.076 0 366.523 0.447715 366.523 1C366.523 1.55228 366.076 2 365.523 2H359.571C359.019 2 358.571 1.55228 358.571 1Z" fill="#252728"/>
<path d="M370.523 1C370.523 0.447715 370.971 0 371.523 0H377.476C378.028 0 378.476 0.447715 378.476 1C378.476 1.55228 378.028 2 377.476 2H371.523C370.971 2 370.523 1.55228 370.523 1Z" fill="#252728"/>
<path d="M382.476 1C382.476 0.447715 382.924 0 383.476 0H389.428C389.981 0 390.428 0.447715 390.428 1C390.428 1.55228 389.981 2 389.428 2H383.476C382.924 2 382.476 1.55228 382.476 1Z" fill="#252728"/>
<path d="M394.428 1C394.428 0.447715 394.876 0 395.428 0H401.381C401.933 0 402.381 0.447715 402.381 1C402.381 1.55228 401.933 2 401.381 2H395.428C394.876 2 394.428 1.55228 394.428 1Z" fill="#252728"/>
<path d="M406.381 1C406.381 0.447715 406.828 0 407.381 0H413.333C413.885 0 414.333 0.447715 414.333 1C414.333 1.55228 413.885 2 413.333 2H407.381C406.828 2 406.381 1.55228 406.381 1Z" fill="#252728"/>
<path d="M418.333 1C418.333 0.447715 418.781 0 419.333 0H425.285C425.838 0 426.285 0.447715 426.285 1C426.285 1.55228 425.838 2 425.285 2H419.333C418.781 2 418.333 1.55228 418.333 1Z" fill="#252728"/>
<path d="M430.285 1C430.285 0.447715 430.733 0 431.285 0H437.238C437.79 0 438.238 0.447715 438.238 1C438.238 1.55228 437.79 2 437.238 2H431.285C430.733 2 430.285 1.55228 430.285 1Z" fill="#252728"/>
<path d="M442.238 1C442.238 0.447715 442.686 0 443.238 0H449.19C449.742 0 450.19 0.447715 450.19 1C450.19 1.55228 449.742 2 449.19 2H443.238C442.686 2 442.238 1.55228 442.238 1Z" fill="#252728"/>
<path d="M454.19 1C454.19 0.447715 454.638 0 455.19 0H461.143C461.695 0 462.143 0.447715 462.143 1C462.143 1.55228 461.695 2 461.143 2H455.19C454.638 2 454.19 1.55228 454.19 1Z" fill="#252728"/>
<path d="M466.143 1C466.143 0.447715 466.59 0 467.143 0H473.095C473.647 0 474.095 0.447715 474.095 1C474.095 1.55228 473.647 2 473.095 2H467.143C466.59 2 466.143 1.55228 466.143 1Z" fill="#252728"/>
<path d="M478.095 1C478.095 0.447715 478.543 0 479.095 0H485.047C485.6 0 486.047 0.447715 486.047 1C486.047 1.55228 485.6 2 485.047 2H479.095C478.543 2 478.095 1.55228 478.095 1Z" fill="#252728"/>
<path d="M490.047 1C490.047 0.447715 490.495 0 491.047 0H497C497.552 0 498 0.447715 498 1C498 1.55228 497.552 2 497 2H491.047C490.495 2 490.047 1.55228 490.047 1Z" fill="#252728"/>
<path d="M502 1C502 0.447715 502.448 0 503 0H508.952C509.504 0 509.952 0.447715 509.952 1C509.952 1.55228 509.504 2 508.952 2H503C502.448 2 502 1.55228 502 1Z" fill="#252728"/>
<path d="M513.952 1C513.952 0.447715 514.4 0 514.952 0H520.905C521.457 0 521.905 0.447715 521.905 1C521.905 1.55228 521.457 2 520.905 2H514.952C514.4 2 513.952 1.55228 513.952 1Z" fill="#252728"/>
<path d="M525.905 1C525.905 0.447715 526.352 0 526.905 0H532.857C533.409 0 533.857 0.447715 533.857 1C533.857 1.55228 533.409 2 532.857 2H526.905C526.352 2 525.905 1.55228 525.905 1Z" fill="#252728"/>
<path d="M537.857 1C537.857 0.447715 538.305 0 538.857 0H544.809C545.362 0 545.809 0.447715 545.809 1C545.809 1.55228 545.362 2 544.809 2H538.857C538.305 2 537.857 1.55228 537.857 1Z" fill="#252728"/>
<path d="M549.809 1C549.809 0.447715 550.257 0 550.809 0H556.762C557.314 0 557.762 0.447715 557.762 1C557.762 1.55228 557.314 2 556.762 2H550.809C550.257 2 549.809 1.55228 549.809 1Z" fill="#252728"/>
<path d="M561.762 1C561.762 0.447715 562.209 0 562.762 0H568.714C569.266 0 569.714 0.447715 569.714 1C569.714 1.55228 569.266 2 568.714 2H562.762C562.209 2 561.762 1.55228 561.762 1Z" fill="#252728"/>
<path d="M573.714 1C573.714 0.447715 574.162 0 574.714 0H580.667C581.219 0 581.667 0.447715 581.667 1C581.667 1.55228 581.219 2 580.667 2H574.714C574.162 2 573.714 1.55228 573.714 1Z" fill="#252728"/>
<path d="M585.667 1C585.667 0.447715 586.114 0 586.667 0H592.619C593.171 0 593.619 0.447715 593.619 1C593.619 1.55228 593.171 2 592.619 2H586.667C586.114 2 585.667 1.55228 585.667 1Z" fill="#252728"/>
<path d="M597.619 1C597.619 0.447715 598.067 0 598.619 0H604.571C605.124 0 605.571 0.447715 605.571 1C605.571 1.55228 605.124 2 604.571 2H598.619C598.067 2 597.619 1.55228 597.619 1Z" fill="#252728"/>
<path d="M609.571 1C609.571 0.447715 610.019 0 610.571 0H616.524C617.076 0 617.524 0.447715 617.524 1C617.524 1.55228 617.076 2 616.524 2H610.571C610.019 2 609.571 1.55228 609.571 1Z" fill="#252728"/>
<path d="M621.524 1C621.524 0.447715 621.971 0 622.524 0H628.476C629.028 0 629.476 0.447715 629.476 1C629.476 1.55228 629.028 2 628.476 2H622.524C621.971 2 621.524 1.55228 621.524 1Z" fill="#252728"/>
<path d="M633.476 1C633.476 0.447715 633.924 0 634.476 0H640.429C640.981 0 641.429 0.447715 641.429 1C641.429 1.55228 640.981 2 640.429 2H634.476C633.924 2 633.476 1.55228 633.476 1Z" fill="#252728"/>
<path d="M645.429 1C645.429 0.447715 645.876 0 646.429 0H652.381C652.933 0 653.381 0.447715 653.381 1C653.381 1.55228 652.933 2 652.381 2H646.429C645.876 2 645.429 1.55228 645.429 1Z" fill="#252728"/>
<path d="M657.381 1C657.381 0.447715 657.829 0 658.381 0H664.333C664.886 0 665.333 0.447715 665.333 1C665.333 1.55228 664.886 2 664.333 2H658.381C657.829 2 657.381 1.55228 657.381 1Z" fill="#252728"/>
<path d="M669.333 1C669.333 0.447715 669.781 0 670.333 0H676.286C676.838 0 677.286 0.447715 677.286 1C677.286 1.55228 676.838 2 676.286 2H670.333C669.781 2 669.333 1.55228 669.333 1Z" fill="#252728"/>
<path d="M681.286 1C681.286 0.447715 681.733 0 682.286 0H688.238C688.79 0 689.238 0.447715 689.238 1C689.238 1.55228 688.79 2 688.238 2H682.286C681.733 2 681.286 1.55228 681.286 1Z" fill="#252728"/>
<path d="M693.238 1C693.238 0.447715 693.686 0 694.238 0H700.19C700.743 0 701.19 0.447715 701.19 1C701.19 1.55228 700.743 2 700.19 2H694.238C693.686 2 693.238 1.55228 693.238 1Z" fill="#252728"/>
<path d="M705.19 1C705.19 0.447715 705.638 0 706.19 0H712.143C712.695 0 713.143 0.447715 713.143 1C713.143 1.55228 712.695 2 712.143 2H706.19C705.638 2 705.19 1.55228 705.19 1Z" fill="#252728"/>
<path d="M717.143 1C717.143 0.447715 717.591 0 718.143 0H724.095C724.648 0 725.095 0.447715 725.095 1C725.095 1.55228 724.648 2 724.095 2H718.143C717.591 2 717.143 1.55228 717.143 1Z" fill="#252728"/>
<path d="M729.095 1C729.095 0.447715 729.543 0 730.095 0H736.048C736.6 0 737.048 0.447715 737.048 1C737.048 1.55228 736.6 2 736.048 2H730.095C729.543 2 729.095 1.55228 729.095 1Z" fill="#252728"/>
<path d="M741.048 1C741.048 0.447715 741.495 0 742.048 0H748C748.552 0 749 0.447715 749 1C749 1.55228 748.552 2 748 2H742.048C741.495 2 741.048 1.55228 741.048 1Z" fill="#252728"/>
<path d="M753 1C753 0.447715 753.448 0 754 0H759.952C760.505 0 760.952 0.447715 760.952 1C760.952 1.55228 760.505 2 759.952 2H754C753.448 2 753 1.55228 753 1Z" fill="#252728"/>
<path d="M764.952 1C764.952 0.447715 765.4 0 765.952 0H771.905C772.457 0 772.905 0.447715 772.905 1C772.905 1.55228 772.457 2 771.905 2H765.952C765.4 2 764.952 1.55228 764.952 1Z" fill="#252728"/>
<path d="M776.905 1C776.905 0.447715 777.353 0 777.905 0H783.857C784.41 0 784.857 0.447715 784.857 1C784.857 1.55228 784.41 2 783.857 2H777.905C777.353 2 776.905 1.55228 776.905 1Z" fill="#252728"/>
<path d="M788.857 1C788.857 0.447715 789.305 0 789.857 0H795.81C796.362 0 796.81 0.447715 796.81 1C796.81 1.55228 796.362 2 795.81 2H789.857C789.305 2 788.857 1.55228 788.857 1Z" fill="#252728"/>
<path d="M800.81 1C800.81 0.447715 801.257 0 801.81 0H807.762C808.314 0 808.762 0.447715 808.762 1C808.762 1.55228 808.314 2 807.762 2H801.81C801.257 2 800.81 1.55228 800.81 1Z" fill="#252728"/>
<path d="M812.762 1C812.762 0.447715 813.21 0 813.762 0H819.714C820.267 0 820.714 0.447715 820.714 1C820.714 1.55228 820.267 2 819.714 2H813.762C813.21 2 812.762 1.55228 812.762 1Z" fill="#252728"/>
<path d="M824.714 1C824.714 0.447715 825.162 0 825.714 0H831.667C832.219 0 832.667 0.447715 832.667 1C832.667 1.55228 832.219 2 831.667 2H825.714C825.162 2 824.714 1.55228 824.714 1Z" fill="#252728"/>
<path d="M836.667 1C836.667 0.447715 837.115 0 837.667 0H843.619C844.172 0 844.619 0.447715 844.619 1C844.619 1.55228 844.172 2 843.619 2H837.667C837.115 2 836.667 1.55228 836.667 1Z" fill="#252728"/>
<path d="M848.619 1C848.619 0.447715 849.067 0 849.619 0H855.572C856.124 0 856.572 0.447715 856.572 1C856.572 1.55228 856.124 2 855.572 2H849.619C849.067 2 848.619 1.55228 848.619 1Z" fill="#252728"/>
<path d="M860.572 1C860.572 0.447715 861.019 0 861.572 0H867.524C868.076 0 868.524 0.447715 868.524 1C868.524 1.55228 868.076 2 867.524 2H861.572C861.019 2 860.572 1.55228 860.572 1Z" fill="#252728"/>
<path d="M872.524 1C872.524 0.447715 872.972 0 873.524 0H879.476C880.029 0 880.476 0.447715 880.476 1C880.476 1.55228 880.029 2 879.476 2H873.524C872.972 2 872.524 1.55228 872.524 1Z" fill="#252728"/>
<path d="M884.476 1C884.476 0.447715 884.924 0 885.476 0H891.429C891.981 0 892.429 0.447715 892.429 1C892.429 1.55228 891.981 2 891.429 2H885.476C884.924 2 884.476 1.55228 884.476 1Z" fill="#252728"/>
<path d="M896.429 1C896.429 0.447715 896.876 0 897.429 0H903.381C903.933 0 904.381 0.447715 904.381 1C904.381 1.55228 903.933 2 903.381 2H897.429C896.876 2 896.429 1.55228 896.429 1Z" fill="#252728"/>
<path d="M908.381 1C908.381 0.447715 908.829 0 909.381 0H915.334C915.886 0 916.334 0.447715 916.334 1C916.334 1.55228 915.886 2 915.334 2H909.381C908.829 2 908.381 1.55228 908.381 1Z" fill="#252728"/>
<path d="M920.334 1C920.334 0.447715 920.781 0 921.334 0H927.286C927.838 0 928.286 0.447715 928.286 1C928.286 1.55228 927.838 2 927.286 2H921.334C920.781 2 920.334 1.55228 920.334 1Z" fill="#252728"/>
<path d="M932.286 1C932.286 0.447715 932.734 0 933.286 0H939.238C939.791 0 940.238 0.447715 940.238 1C940.238 1.55228 939.791 2 939.238 2H933.286C932.734 2 932.286 1.55228 932.286 1Z" fill="#252728"/>
<path d="M944.238 1C944.238 0.447715 944.686 0 945.238 0H951.191C951.743 0 952.191 0.447715 952.191 1C952.191 1.55228 951.743 2 951.191 2H945.238C944.686 2 944.238 1.55228 944.238 1Z" fill="#252728"/>
<path d="M956.191 1C956.191 0.447715 956.638 0 957.191 0H963.143C963.695 0 964.143 0.447715 964.143 1C964.143 1.55228 963.695 2 963.143 2H957.191C956.638 2 956.191 1.55228 956.191 1Z" fill="#252728"/>
<path d="M968.143 1C968.143 0.447715 968.591 0 969.143 0H975.096C975.648 0 976.096 0.447715 976.096 1C976.096 1.55228 975.648 2 975.096 2H969.143C968.591 2 968.143 1.55228 968.143 1Z" fill="#252728"/>
<path d="M980.096 1C980.096 0.447715 980.543 0 981.096 0H987.048C987.6 0 988.048 0.447715 988.048 1C988.048 1.55228 987.6 2 987.048 2H981.096C980.543 2 980.096 1.55228 980.096 1Z" fill="#252728"/>
<path d="M992.048 1C992.048 0.447715 992.496 0 993.048 0H999C999.553 0 1000 0.447715 1000 1C1000 1.55228 999.553 2 999 2H993.048C992.496 2 992.048 1.55228 992.048 1Z" fill="#252728"/>
</svg>
